/* XPM */
static char * cable_grey_xpm[] = {
"16 16 9 1",
" 	c None",
".	c #809982",
"+	c #B9AE54",
"@	c #A8A16B",
"#	c #8E8E8E",
"$	c #7E7E7E",
"%	c #D2C136",
"&	c #CEBF3A",
"*	c #81817D",
"        .+@#    ",
"    $$$$.+@#    ",
"   $$           ",
"  $$            ",
" $$ $$$$$$      ",
" $$ $    $$     ",
"  $$     $$     ",
"  $$$$$$$$      ",
" $  $$$$$       ",
" $            %&",
" $            $*",
" $$          $$$",
"  $          $$ ",
"   $$$$$$$$$$$  ",
"     $$$$$$$    ",
"                "};
