/* XPM */
static char * cable_xpm[] = {
"16 16 12 1",
" 	c None",
".	c #808099",
"+	c #B9AE54",
"@	c #A8A16B",
"#	c #8E8E8E",
"$	c #0006FF",
"%	c #D2C136",
"&	c #CEBF3A",
"*	c #949285",
"=	c #9A977D",
"-	c #8C8C8F",
";	c #8A8A90",
"        .+@#    ",
"    $$$$.+@#    ",
"   $$           ",
"  $$            ",
" $$ $$$$$$      ",
" $$ $    $$     ",
"  $$     $$     ",
"  $$$$$$$$      ",
" $  $$$$$       ",
" $            %&",
" $            *=",
" $$          ###",
"  $          -; ",
"   $$$$$$$$$$$  ",
"     $$$$$$$    ",
"                "};
