/* XPM */
static char * cloud_xpm[] = {
"16 16 4 1",
" 	c None",
".	c #DBDBDB",
"+	c #B5B5B5",
"@	c #828282",
"      ...       ",
"   .........    ",
"  ...........   ",
" .............  ",
" .............+ ",
" .............++",
" +@............+",
" @@...@......@..",
"+@....@......@..",
"+@.....@@.@.@...",
"++@.....++....@ ",
"+++@@..+++@...+ ",
"@@++@+++@@+@+@  ",
" @@@  +@@ +@@   ",
"                ",
"                "};
