/* XPM */
static char * hub_xpm[] = {
"16 16 17 1",
" 	c None",
".	c #5B8BF6",
"+	c #FFFFFF",
"@	c #014EFE",
"#	c #5589FF",
"$	c #0942CE",
"%	c #5589FA",
"&	c #5288FD",
"*	c #024EFC",
"=	c #044FFA",
"-	c #0650F9",
";	c #0C55FA",
">	c #0D56FA",
",	c #0650F8",
"'	c #024EFB",
")	c #034EF8",
"!	c #054CF0",
"                ",
"                ",
"                ",
"    ....+++.....",
"   .+....+.+...@",
"  .++++++++++.@@",
"  ..+..+...+.#@@",
" .....+++....@@$",
"......+.%&..@@@ ",
"@@@@*=-;>,=*$@$ ",
"@@@@@@@@@@@@$@  ",
"@@@@@@@@@')!$$  ",
"$$$$$$$$$$$$$   ",
"                ",
"                ",
"                "};
