/* XPM */
static char * in_to_out_xpm[] = {
"16 16 5 1",
" 	c None",
".	c #969696",
"+	c #5E5E5E",
"@	c #000000",
"#	c #FF0000",
".......+@.......",
".....+++@@@.....",
".....++@@@@.....",
".....+@@@@@.....",
".....+@@@@@.....",
"....+@@@@@@@....",
"................",
"      ####      ",
"      ####      ",
"      ####      ",
"      ####      ",
"      ####      ",
"    ########    ",
"     ######     ",
"      ####      ",
"       ##       "};
