/* XPM */
static char * machine_xpm[] = {
"16 16 4 1",
" 	c None",
".	c #B8B8B8",
"+	c #76D4EC",
"@	c #7B7C7C",
"                ",
"   ..........   ",
"  .++++++++++.  ",
"  .++++++++++.  ",
"  .++++++++++.  ",
"  .++++++++++.  ",
"  .++++++++++.  ",
"  .++++++++++.  ",
"  .++++++++++.  ",
"   ..........   ",
"  ...@..@..@... ",
" ...@.@..@@.@.. ",
".@@@.@@@@@.@.@..",
"................",
"                ",
"                "};
