/* XPM */
static char * network_card_xpm[] = {
"16 16 7 1",
" 	c None",
".	c #969696",
"+	c #2DBA22",
"@	c #934B05",
"#	c #087700",
"$	c #444444",
"%	c #FF8F22",
"                ",
"                ",
"              ..",
"++++++++++++++. ",
"+@+#@+####$#@#. ",
"++#+@##@%#@#@#. ",
"+#+#@$$$####@#. ",
"+$###$$$###%##. ",
"+%%%%+###%%%##. ",
"++##$####$@#@#. ",
"+#############. ",
" @%@%@% @%@%@ . ",
"              . ",
"              . ",
"                ",
"                "};
