/* XPM */
static char * port_xpm[] = {
"16 16 5 1",
" 	c None",
".	c #969696",
"+	c #5A5A5A",
"@	c #000000",
"#	c #FF8F22",
"................",
"................",
"......+++@......",
"...+++++@@@@@...",
"...+@+@@@@@@@...",
"...++@+@@@@@@...",
"...+@+@@@@@@@...",
"...+@@@@@@@@@...",
"...+@@@@@@@@@...",
"...@@#@#@#@#@...",
"..@@@#@#@#@#@@..",
"................",
"................",
"                ",
"                ",
"                "};
