/* XPM */
static char * right_to_left_xpm[] = {
"16 16 2 1",
" 	c None",
".	c #FF0000",
"                ",
"                ",
"                ",
"                ",
"   .            ",
"  ..            ",
" ...............",
"................",
"................",
" ...............",
"  ..            ",
"   .            ",
"                ",
"                ",
"                ",
"                "};
