/* XPM */
static char * router_xpm[] = {
"16 16 105 2",
"  	c None",
". 	c #799BDD",
"+ 	c #6793EF",
"@ 	c #6793F2",
"# 	c #618FF5",
"$ 	c #628FF4",
"% 	c #7BA2E8",
"& 	c #8AAAE1",
"* 	c #94AFD9",
"= 	c #5F8EF4",
"- 	c #7DA5F3",
"; 	c #CBDFF7",
"> 	c #B8CFF4",
", 	c #83A7F2",
"' 	c #76A0F5",
") 	c #5A8BF8",
"! 	c #8DAEED",
"~ 	c #D2E3F6",
"{ 	c #C1D6F2",
"] 	c #7EA6F3",
"^ 	c #5D8DF6",
"/ 	c #6E96EA",
"( 	c #5789FC",
"_ 	c #5589FF",
": 	c #5B8BF6",
"< 	c #9BB9F0",
"[ 	c #B4CCF3",
"} 	c #83A9F0",
"| 	c #87ADF1",
"1 	c #9BBBF4",
"2 	c #6190F5",
"3 	c #5689FD",
"4 	c #5589FD",
"5 	c #6990E4",
"6 	c #5787EA",
"7 	c #5589FE",
"8 	c #5B8CF7",
"9 	c #92B4F4",
"0 	c #81A9F5",
"a 	c #6896F6",
"b 	c #7EA6F2",
"c 	c #7DA5F2",
"d 	c #6A98F5",
"e 	c #4466B9",
"f 	c #2A67E7",
"g 	c #3775FB",
"h 	c #5389FF",
"i 	c #7CA5F5",
"j 	c #AAC4F3",
"k 	c #CEDFF4",
"l 	c #A7C2F2",
"m 	c #6492F6",
"n 	c #A0BFF2",
"o 	c #CDDCF5",
"p 	c #E2EEF9",
"q 	c #A8C3EE",
"r 	c #6B98F7",
"s 	c #5489FF",
"t 	c #3F7AFB",
"u 	c #1844B2",
"v 	c #2766EC",
"w 	c #014EFC",
"x 	c #1058F9",
"y 	c #3572F5",
"z 	c #6493F1",
"A 	c #6896F4",
"B 	c #5389FD",
"C 	c #5589FA",
"D 	c #5288FD",
"E 	c #5186F4",
"F 	c #6090F2",
"G 	c #407AF5",
"H 	c #145AF9",
"I 	c #024EFB",
"J 	c #0F3FB7",
"K 	c #2A65E8",
"L 	c #014EFE",
"M 	c #024EFC",
"N 	c #044FFA",
"O 	c #0650F9",
"P 	c #0C55FA",
"Q 	c #0D56FA",
"R 	c #0650F8",
"S 	c #103FB3",
"T 	c #0A49DC",
"U 	c #014EFD",
"V 	c #0748E2",
"W 	c #11245F",
"X 	c #143694",
"Y 	c #0940C8",
"Z 	c #064BED",
"` 	c #044EF8",
" .	c #034EF8",
"..	c #054CF0",
"+.	c #0942CE",
"@.	c #0A2C88",
"#.	c #0D1740",
"$.	c #1B254E",
"%.	c #1C2E6C",
"&.	c #162E71",
"*.	c #152D70",
"=.	c #183072",
"-.	c #1A3173",
";.	c #213169",
">.	c #232B51",
"                                ",
"                                ",
"                                ",
"        . + @ # $ % & *         ",
"    = - ; > , ' ) ! ~ { ] ^ /   ",
"  ( _ _ : < [ } | 1 2 3 4 _ 3 5 ",
"6 _ _ 7 7 8 9 0 a b c d _ _ _ e ",
"f g h i j k l m n o p q r s t u ",
"v w x y z A B h C D E F G H I J ",
"K L L L M N O P Q R N M L L L S ",
"  T U L L L L L L L L L L U V W ",
"    X Y Z ` I I I I  ...+.@.#.  ",
"        $.%.&.*.=.-.;.>.        ",
"                                ",
"                                ",
"                                "};
