/* XPM */
static char * text_xpm[] = {
"16 16 5 1",
" 	c None",
".	c #FFFFFF",
"+	c #E0E0E0",
"@	c #C1C1C1",
"#	c #444444",
"     ..++++++@  ",
"    ..+++++++@  ",
"   ...+#+###+@  ",
"  ....+++++++@  ",
"  .++####+#+#@  ",
"  +++++++++++@  ",
"  +###+#+#+##@  ",
"  +++++++++++@  ",
"  +###+#####+@  ",
"  +++++++++++@  ",
"  +##+#####+#@  ",
"  +++++++++++@  ",
"  +#+#+#####+@  ",
"  +++++++++++@  ",
"  +###+#+####@  ",
"  @@@@@@@@@@@@  "};
