/* XPM */
static char * gateway_xpm[] = {
"16 16 5 1",
" 	c None",
".	c #FFFFFF",
"+	c #4743EC",
"@	c #ECA643",
"#	c #5AC802",
"                ",
"      .....     ",
"    ++++.@.@@   ",
"   +++@+@#@#@@  ",
"  ++++@@@#@@#@@ ",
"  @++++++@@#@@+ ",
" @+++++@@+++@#@@",
" @++++@@@@@+@#@@",
" ##++@@##@@@@@@@",
" ##+++@@@#@@+@@@",
" @#+++++@#@@+@@+",
"  @+++++@@@++@@ ",
"  ++++++@@+++++ ",
"   +++++@+++++  ",
"    +++++++++   ",
"      .....     "};
