/* XPM */
static char * on_xpm[] = {
"16 16 23 1",
" 	c None",
".	c #978B00",
"+	c #A99C00",
"@	c #B7A900",
"#	c #BAAC00",
"$	c #B5A700",
"%	c #A59800",
"&	c #C1B200",
"*	c #D5C500",
"=	c #D7C600",
"-	c #CABA00",
";	c #938800",
">	c #B0A200",
",	c #D3C300",
"'	c #EDDB00",
")	c #EEDC00",
"!	c #DAC900",
"~	c #C2B300",
"{	c #8E8300",
"]	c #B9AB00",
"^	c #AB9E00",
"/	c #958A00",
"(	c #A39600",
"                ",
"                ",
"                ",
"                ",
"                ",
"     .+@#$      ",
"     %&*=-      ",
"    ;>,')!~     ",
"    ;>,')!~     ",
"    {%&*=-]     ",
"     .+@#$^     ",
"      / (       ",
"                ",
"                ",
"                ",
"                "};
