/* XPM */
static char * on_xpm[] = {
"16 16 19 1",
" 	c None",
".	c #005BCC",
"+	c #0062DC",
"@	c #006DE8",
"#	c #006EEA",
"$	c #0067E6",
"%	c #0061D8",
"&	c #006BF0",
"*	c #0374FF",
"=	c #006EF6",
"-	c #005EC8",
";	c #0064E0",
">	c #0179FF",
",	c #177FFF",
"'	c #0575FF",
")	c #0058C4",
"!	c #0068DE",
"~	c #005FCA",
"{	c #0065D6",
"                ",
"                ",
"                ",
"                ",
"                ",
"     .+@#$      ",
"     %&**=      ",
"    -;>,,'&     ",
"    -;>,,'&     ",
"    )%&**=#     ",
"     .+@#$!     ",
"      ~ {       ",
"                ",
"                ",
"                ",
"                "};
